<svg xmlns="http://www.w3.org/2000/svg" width="717px" height="276px" viewBox="0 0 717 276"><g fill="none" fill-rule="evenodd"><path fill="#999" fill-rule="nonzero" d="M369.98 170q18.304 0 18.304-15.36 0-7.424-2.368-11.648t-9.024-6.784l-15.104-6.784q-7.296-2.816-7.296-8.192v-2.176q0-2.56 2.368-4.48t6.976-1.92h19.328q1.792 0 1.792-1.664v-4.48q0-1.792-1.792-1.792h-20.992q-17.28 0-17.28 15.744 0 6.016 2.816 9.664t9.344 6.336l15.104 6.4q6.528 2.56 6.528 9.344v2.432q0 7.424-9.984 7.424h-21.504q-1.792 0-1.792 1.664v4.48q0 1.792 1.792 1.792zm87.08 0q1.792 0 1.792-1.664v-4.608q0-1.792-1.792-1.792h-26.112q-10.752 0-10.752-11.136v-7.808q0-1.152 1.28-1.152H457.7q1.792 0 1.792-1.92v-16.256q0-8.96-4.992-13.952t-13.824-4.992h-10.752q-8.832 0-13.888 4.992t-5.056 13.952v27.392q0 8.96 5.056 13.952Q421.091 170 429.924 170zm-35.584-34.944q-1.28 0-1.28-1.28v-9.856q0-11.008 10.752-11.008h8.704q10.752 0 10.752 11.008v9.856q0 1.28-1.28 1.28zM508.556 170q9.856 0 13.056-6.784h.512v4.992q0 1.792 1.792 1.792h5.76q1.792 0 1.792-1.792v-61.696q0-1.792-1.792-1.792H501.9q-8.832 0-13.888 4.992t-5.056 13.952v27.392q0 8.96 5.056 13.952Q493.067 170 501.9 170zm-5.632-8.192q-10.624 0-10.624-11.136v-26.624q0-11.136 10.624-11.136h17.92q1.28 0 1.28 1.152v35.968q0 5.632-3.072 8.704t-8.832 3.072zm62.76 8.192q1.792 0 1.792-1.792V125.84q0-6.016 3.072-9.472t8.832-3.456h6.912q.896.128 1.28-.32.384-.449.384-1.344v-4.736q0-1.792-1.664-1.792H581.3q-4.864 0-8.448 2.048t-4.864 4.864h-.512v-5.12q0-1.792-1.792-1.792h-5.76q-1.792 0-1.792 1.792v61.696q0 1.792 1.792 1.792zm78.016 0q1.792 0 1.792-1.664V163.6q0-1.792-1.792-1.792h-17.536q-10.624 0-10.624-11.136v-26.624q0-11.136 10.624-11.136H643.7q1.792 0 1.792-1.664v-4.736q0-1.792-1.792-1.792h-18.56q-8.832 0-13.888 4.992t-5.056 13.952v27.392q0 8.96 5.056 13.952T625.14 170zm31.4 0q1.792 0 1.792-1.792v-43.52q0-5.632 3.072-8.704t8.832-3.072h7.168q10.752 0 10.752 11.136v44.16q0 1.792 1.792 1.792h5.76q1.792 0 1.792-1.792v-44.544q0-8.96-4.864-13.952t-13.568-4.992h-7.168q-9.856 0-13.056 6.784h-.512V81.808q0-1.792-1.792-1.792h-5.76q-1.792 0-1.792 1.792v86.4q0 1.792 1.792 1.792z"/><path fill="#4986FF" fill-rule="nonzero" d="M44.34 87.696q2.56 0 2.56 2.688v8.704q0 2.688-2.56 2.688H18.612q-1.536 0-1.536 1.408v19.84q0 1.536 1.536 1.536H40.5q2.688 0 2.688 2.688v8.576q0 2.816-2.688 2.816H18.612q-1.536 0-1.536 1.408v27.264q0 2.688-2.688 2.688H3.508Q.82 170 .82 167.312V90.384q0-2.688 2.688-2.688Zm37.648 0q2.688 0 2.688 2.688v64q0 1.408 1.536 1.408h27.008q2.56 0 2.56 2.816v8.704q0 2.688-2.56 2.688H71.108q-2.688 0-2.688-2.688V90.384q0-2.688 2.688-2.688Zm185.816 0q3.2 0 4.224 2.688l12.16 27.52h.512l12.032-27.52q1.28-2.688 4.096-2.688h12.544q1.28 0 1.856.96t.064 1.984l-19.456 37.248 19.84 39.168q.64 1.28.128 2.112-.511.832-1.92.832h-12.8q-2.688 0-3.712-2.56L284.7 139.792h-.512l-12.8 27.648q-1.152 2.56-3.84 2.56h-12.672q-1.28 0-1.792-.832-.511-.832 0-1.984l19.84-39.296-19.2-37.376q-.512-1.025 0-1.92.512-.896 1.792-.896Z"/><path fill="#FF7300" d="M229.99 155.9a2 2 0 0 1 2 2v10.08a2 2 0 0 1-2 2h-93.1a2 2 0 0 1-2-2V157.9a2 2 0 0 1 2-2zm0-34.7a2 2 0 0 1 2 2v10.08a2 2 0 0 1-2 2h-93.1a2 2 0 0 1-2-2V123.2a2 2 0 0 1 2-2zm0-33.5a2 2 0 0 1 2 2v10.08a2 2 0 0 1-2 2h-93.1a2 2 0 0 1-2-2V89.7a2 2 0 0 1 2-2z"/><path fill="#999" d="M276.095 208.04a5 5 0 0 1 0 7.071c-23.708 23.71-55.26 36.645-88.1 36.901l-1 .004c-27.908 0-54.934-9.157-77.067-26.303l-48.77 48.771a2 2 0 0 1-2.829 0l-8.485-8.485a2 2 0 0 1 0-2.829l48.057-48.058H97.9l7.099-7.096 2.083 2.083c21.575 20.522 49.72 31.685 78.997 31.913l.921.004c30.571 0 59.97-11.922 82.024-33.976a5 5 0 0 1 7.071 0m0-171.12a5 5 0 1 1-7.07 7.072c-45.301-45.301-118.749-45.301-164.05 0a5 5 0 1 1-7.07-7.071c49.206-49.207 128.984-49.207 178.19 0"/></g></svg>